<svg width="24" height="24" viewBox="0 0 24 24" fill="none" xmlns="http://www.w3.org/2000/svg">
<path d="M19.25 7.5C20.2165 7.5 21 6.7165 21 5.75C21 4.7835 20.2165 4 19.25 4C18.2835 4 17.5 4.7835 17.5 5.75C17.5 6.7165 18.2835 7.5 19.25 7.5Z" stroke="black" stroke-width="1.5"/>
<path d="M12.25 14C13.2165 14 14 13.2165 14 12.25C14 11.2835 13.2165 10.5 12.25 10.5C11.2835 10.5 10.5 11.2835 10.5 12.25C10.5 13.2165 11.2835 14 12.25 14Z" stroke="black" stroke-width="1.5"/>
<path fill-rule="evenodd" clip-rule="evenodd" d="M15 5.75C15 5.33579 14.6642 5 14.25 5L3.75 5C3.3358 5 3 5.33579 3 5.75C3 6.16421 3.3358 6.5 3.75 6.5L14.25 6.5C14.6642 6.5 15 6.16421 15 5.75Z" fill="black"/>
<path fill-rule="evenodd" clip-rule="evenodd" d="M21 18.75C21 18.3358 20.6642 18 20.25 18L9.75 18C9.3358 18 9 18.3358 9 18.75C9 19.1642 9.3358 19.5 9.75 19.5L20.25 19.5C20.6642 19.5 21 19.1642 21 18.75Z" fill="black"/>
<path fill-rule="evenodd" clip-rule="evenodd" d="M21 12.25C21 12.6642 20.6642 13 20.25 13H16.75C16.3358 13 16 12.6642 16 12.25C16 11.8358 16.3358 11.5 16.75 11.5H20.25C20.6642 11.5 21 11.8358 21 12.25ZM8 12.25C8 11.8358 7.6642 11.5 7.25 11.5L3.75 11.5C3.3358 11.5 3 11.8358 3 12.25C3 12.6642 3.3358 13 3.75 13L7.25 13C7.6642 13 8 12.6642 8 12.25Z" fill="black"/>
<path d="M4.75 20.5C5.7165 20.5 6.5 19.7165 6.5 18.75C6.5 17.7835 5.7165 17 4.75 17C3.7835 17 3 17.7835 3 18.75C3 19.7165 3.7835 20.5 4.75 20.5Z" stroke="black" stroke-width="1.5"/>
</svg>
