<svg xmlns="http://www.w3.org/2000/svg" width="501" height="240" fill-rule="evenodd" viewBox="0 0 494 237" shape-rendering="geometricPrecision" text-rendering="geometricPrecision" image-rendering="optimizeQuality" clip-rule="evenodd"><defs><style type="text/css"><![CDATA[
    .fil1 {fill:#0A78D6}
    .fil0 {fill:#FFBD00}
    .fil2 {fill:#0A78D6;fill-rule:nonzero}
   ]]></style></defs><g id="Слой_x0020_1"><path d="M185 0l10 15 17 5-10 15v18l-17-6-17 6V35l-11-15 17-5z" class="fil0"/><path d="M260 129c0 17 8 35 27 35 4 0 7-1 10-2 13-6 18-20 18-33 0-17-8-35-28-35-2 0-5 0-7 1-15 4-20 20-20 34zm-2-50c2-2 3-4 5-5 9-7 20-10 31-10s22 3 31 10c18 12 24 34 24 54 0 22-8 44-27 57-9 5-19 8-30 8-9 0-19-3-27-9-1-1-3-2-4-4 0 2 0 3 0 5v52h-35V67h32c0 4 0 8 0 12zM100 151V20h34v126c0 4 0 11 4 13 3 2 9 1 12 1v30c-12 2-27 2-37-5-11-8-13-22-13-34zM168 190V67h34v123zM17 97H0V69h17v-4c0-26 15-41 37-45 10-2 22-1 29 0 0 10 0 20 0 30-3-1-7-1-11-1-11 0-20 4-20 17v3h28v28H52v93H17V97z" class="fil1"/><path d="M392 129V98h10l21 31h10l-24-35 21-27h-10l-18 24h-10V43h-8v86zM494 129v-8h-34c-2 0-3 0-4 0s-2 0-2 0l5-5 34-43v-6h-49v7h32c1 0 2 0 3 0s2 0 3 0l-5 6-35 43v6h52z" class="fil2"/></g></svg>